Coordinates
version=1
nRows=30
nColumns=38
inDegrees=no

Units are S.I. units (second, meters, Newtons, ...)
If the header above contains a line with 'inDegrees', this indicates whether rotational values are in degrees (yes) or radians (no).

endheader
time	pelvis_tilt	pelvis_list	pelvis_rotation	pelvis_tx	pelvis_ty	pelvis_tz	hip_flexion_r	hip_adduction_r	hip_rotation_r	knee_angle_r	ankle_angle_r	subtalar_angle_r	mtp_angle_r	hip_flexion_l	hip_adduction_l	hip_rotation_l	knee_angle_l	ankle_angle_l	subtalar_angle_l	mtp_angle_l	lumbar_extension	lumbar_bending	lumbar_rotation	arm_flex_r	arm_add_r	arm_rot_r	elbow_flex_r	pro_sup_r	wrist_flex_r	wrist_dev_r	arm_flex_l	arm_add_l	arm_rot_l	elbow_flex_l	pro_sup_l	wrist_flex_l	wrist_dev_l
1.86	1.1151	1.3696	-2.73473	0.733194	-0.281017	0.934437	0.0862628	-0.363937	-0.0616207	1.2291	-0.280575	0	0	0.324991	0.137383	-0.292043	0.532465	0.101027	0	0	-0.0710678	-0.184384	0.0318913	-0.00559887	-0.185186	0.128641	0.503537	1.10497	0	0	-0.313586	-0.253198	0.365858	0.685924	0.706207	0	0
1.87	1.09742	1.36684	-2.71222	0.734867	-0.291211	0.936529	0.108946	-0.363813	-0.0538407	1.26597	-0.270358	0	0	0.303111	0.146257	-0.280992	0.523391	0.106068	0	0	-0.0770136	-0.18569	0.0237953	-0.00956386	-0.182999	0.131723	0.497626	1.09997	0	0	-0.304739	-0.255129	0.365851	0.681558	0.707606	0	0
1.88	1.07175	1.36362	-2.68226	0.736394	-0.301381	0.939022	0.128437	-0.363291	-0.0481637	1.29744	-0.244063	0	0	0.276708	0.154551	-0.270385	0.509604	0.109817	0	0	-0.0849443	-0.186502	0.016954	-0.0127252	-0.176156	0.108691	0.486167	1.14525	0	0	-0.293267	-0.256415	0.3687	0.672497	0.714417	0	0
1.89	1.04574	1.36286	-2.65096	0.73792	-0.311464	0.94153	0.14756	-0.359946	-0.0455361	1.32344	-0.214656	0	0	0.251254	0.159289	-0.260639	0.496422	0.114108	0	0	-0.0917378	-0.184555	0.00856815	-0.017674	-0.173904	0.108776	0.481476	1.14778	0	0	-0.282831	-0.257852	0.370986	0.667062	0.716114	0	0
1.9	1.02165	1.36399	-2.6206	0.739465	-0.321449	0.944008	0.166919	-0.354438	-0.0450807	1.34385	-0.188978	0	0	0.226894	0.161606	-0.250872	0.482861	0.118256	0	0	-0.0972019	-0.180694	-0.000379646	-0.0238339	-0.172148	0.109541	0.478841	1.14964	0	0	-0.272184	-0.259403	0.373631	0.662821	0.717262	0	0
1.91	1.00103	1.36727	-2.5931	0.741008	-0.331246	0.946364	0.187363	-0.344868	-0.0433945	1.35866	-0.169574	0	0	0.205065	0.16142	-0.241614	0.469976	0.122307	0	0	-0.100878	-0.175021	-0.00930817	-0.0311241	-0.17073	0.110203	0.478058	1.15046	0	0	-0.261432	-0.260967	0.376001	0.660298	0.717579	0	0
1.92	0.984637	1.37108	-2.56905	0.742583	-0.340953	0.948531	0.208512	-0.336945	-0.0446657	1.36891	-0.155498	0	0	0.18439	0.160952	-0.231825	0.456384	0.1257	0	0	-0.10337	-0.169334	-0.0187661	-0.039804	-0.169513	0.110763	0.479966	1.14979	0	0	-0.250834	-0.262954	0.378728	0.659487	0.71719	0	0
1.93	0.971787	1.37537	-2.54784	0.744162	-0.350515	0.950484	0.230343	-0.329633	-0.0472419	1.37513	-0.145564	0	0	0.16537	0.160013	-0.221769	0.443336	0.12871	0	0	-0.105057	-0.16369	-0.0286871	-0.0493016	-0.168314	0.111185	0.483771	1.14678	0	0	-0.240273	-0.265543	0.382779	0.660105	0.717222	0	0
1.94	0.958981	1.37968	-2.52598	0.745766	-0.35993	0.952324	0.251431	-0.322275	-0.0504298	1.37702	-0.138081	0	0	0.146835	0.158768	-0.211882	0.430248	0.131172	0	0	-0.107005	-0.157949	-0.0392441	-0.059022	-0.167207	0.111859	0.488713	1.14094	0	0	-0.22947	-0.268276	0.385676	0.662232	0.717661	0	0
1.95	0.944431	1.38359	-2.50192	0.747416	-0.369238	0.954095	0.271036	-0.315724	-0.054829	1.3747	-0.131643	0	0	0.127771	0.157411	-0.202102	0.416734	0.133539	0	0	-0.10966	-0.152211	-0.0506717	-0.0682261	-0.166351	0.114142	0.493687	1.13182	0	0	-0.218235	-0.270753	0.387204	0.66449	0.71892	0	0
1.96	0.925908	1.38564	-2.47383	0.74906	-0.37856	0.955876	0.287897	-0.312089	-0.0611678	1.36854	-0.12486	0	0	0.10547	0.15717	-0.191902	0.400364	0.13505	0	0	-0.114522	-0.147472	-0.0617552	-0.0758918	-0.159109	0.0805372	0.492345	1.18888	0	0	-0.206531	-0.273828	0.389404	0.668352	0.718323	0	0
1.97	0.906454	1.38701	-2.44507	0.750653	-0.387782	0.957463	0.303736	-0.310406	-0.0690947	1.35952	-0.11661	0	0	0.0825731	0.156833	-0.182777	0.383563	0.136863	0	0	-0.119815	-0.14321	-0.073345	-0.0838043	-0.15672	0.075447	0.495465	1.19026	0	0	-0.195466	-0.276473	0.387923	0.673358	0.721672	0	0
1.98	0.884981	1.38767	-2.41409	0.752223	-0.39692	0.958922	0.317447	-0.309983	-0.0788879	1.34705	-0.106379	0	0	0.0584156	0.156529	-0.173029	0.36544	0.13816	0	0	-0.126152	-0.139089	-0.0848117	-0.0913254	-0.154009	0.0687984	0.497999	1.19059	0	0	-0.183529	-0.279712	0.387643	0.679224	0.726365	0	0
1.99	0.863041	1.38833	-2.38261	0.753742	-0.405981	0.960193	0.329938	-0.309813	-0.0897357	1.3315	-0.0949785	0	0	0.0353308	0.155279	-0.16351	0.349518	0.140406	0	0	-0.132574	-0.134554	-0.0965481	-0.0982971	-0.151292	0.0628201	0.500054	1.18975	0	0	-0.171645	-0.282961	0.388412	0.68413	0.731085	0	0
2	0.841668	1.3887	-2.3521	0.755198	-0.414948	0.961283	0.341497	-0.310101	-0.100664	1.31314	-0.0831685	0	0	0.0127496	0.15388	-0.15368	0.334368	0.142687	0	0	-0.13924	-0.130183	-0.108165	-0.104226	-0.148755	0.0586783	0.500968	1.18746	0	0	-0.159505	-0.285956	0.38877	0.688612	0.737128	0	0
2.01	0.820379	1.38894	-2.32215	0.756558	-0.423854	0.962198	0.352104	-0.310499	-0.111784	1.29195	-0.0716341	0	0	-0.00951043	0.152093	-0.143873	0.319423	0.145543	0	0	-0.145831	-0.125857	-0.119108	-0.109292	-0.146386	0.0563306	0.50045	1.18386	0	0	-0.14671	-0.288346	0.388356	0.692133	0.744077	0	0
2.02	0.801114	1.38926	-2.29487	0.757805	-0.432729	0.962903	0.362158	-0.310999	-0.12291	1.26798	-0.0602882	0	0	-0.030135	0.149841	-0.135283	0.306446	0.149169	0	0	-0.151793	-0.121702	-0.129176	-0.113751	-0.144129	0.0554951	0.498722	1.17969	0	0	-0.133479	-0.290845	0.388974	0.695314	0.750321	0	0
2.03	0.78398	1.38951	-2.27027	0.758949	-0.441583	0.963427	0.371266	-0.311744	-0.134151	1.24112	-0.0490189	0	0	-0.0496863	0.147621	-0.12701	0.294502	0.152735	0	0	-0.157396	-0.117808	-0.138747	-0.117726	-0.141874	0.055685	0.496116	1.17459	0	0	-0.120195	-0.293484	0.39049	0.698359	0.755443	0	0
2.04	0.771391	1.39018	-2.25059	0.760021	-0.450271	0.963711	0.380455	-0.312574	-0.145333	1.21192	-0.0379037	0	0	-0.0664903	0.14537	-0.119134	0.285414	0.156844	0	0	-0.162233	-0.114224	-0.147906	-0.121313	-0.139714	0.0571033	0.493365	1.16891	0	0	-0.10647	-0.296118	0.392373	0.701772	0.758403	0	0
2.05	0.756549	1.38974	-2.2293	0.761032	-0.459026	0.964032	0.386639	-0.313888	-0.157619	1.17945	-0.0257615	0	0	-0.0861772	0.143969	-0.108031	0.272652	0.158957	0	0	-0.168293	-0.11083	-0.155935	-0.123188	-0.13444	0.0409131	0.485147	1.19814	0	0	-0.0918744	-0.295141	0.38417	0.699833	0.798839	0	0
2.06	0.747355	1.38987	-2.21519	0.761847	-0.467766	0.964076	0.393758	-0.314922	-0.168768	1.14538	-0.0146054	0	0	-0.103193	0.142557	-0.099418	0.262681	0.16203	0	0	-0.172834	-0.108109	-0.162244	-0.126164	-0.132206	0.041581	0.480846	1.19479	0	0	-0.0775294	-0.296551	0.384995	0.701698	0.807678	0	0
2.07	0.740502	1.3901	-2.20426	0.762545	-0.476504	0.963952	0.400303	-0.315989	-0.180123	1.10928	-0.00476106	0	0	-0.119507	0.141376	-0.0910117	0.253185	0.165125	0	0	-0.176873	-0.105705	-0.167452	-0.128881	-0.130136	0.0428057	0.476395	1.19072	0	0	-0.0628737	-0.297604	0.386022	0.703212	0.815539	0	0
2.08	0.734847	1.39056	-2.19482	0.763147	-0.485269	0.963667	0.405827	-0.3169	-0.19258	1.07108	0.00408373	0	0	-0.135465	0.140091	-0.0829553	0.243632	0.168352	0	0	-0.180434	-0.103354	-0.172062	-0.131514	-0.128124	0.0444733	0.471811	1.18617	0	0	-0.0479136	-0.298238	0.386936	0.704423	0.822603	0	0
2.09	0.728319	1.39095	-2.18552	0.763619	-0.494032	0.963263	0.41021	-0.317121	-0.205238	1.0309	0.0126419	0	0	-0.151169	0.138598	-0.0752035	0.234849	0.171863	0	0	-0.184064	-0.100896	-0.175544	-0.133761	-0.126379	0.0469979	0.467089	1.18089	0	0	-0.032696	-0.298634	0.388742	0.705094	0.828446	0	0
2.1	0.719618	1.39129	-2.17518	0.76395	-0.502873	0.962779	0.413152	-0.316283	-0.218061	0.98857	0.021015	0	0	-0.166878	0.136669	-0.0684342	0.226849	0.175509	0	0	-0.18762	-0.0980736	-0.17762	-0.135752	-0.125136	0.050999	0.46205	1.17475	0	0	-0.0181399	-0.298955	0.392513	0.704824	0.832048	0	0
2.11	0.711247	1.39193	-2.16592	0.76414	-0.511831	0.962154	0.415311	-0.314755	-0.231364	0.944548	0.028568	0	0	-0.182175	0.134498	-0.0629229	0.219064	0.180049	0	0	-0.190626	-0.0952187	-0.178987	-0.137275	-0.124194	0.0567796	0.456156	1.16753	0	0	-0.00433307	-0.298735	0.395203	0.704569	0.834815	0	0
2.12	0.709289	1.39332	-2.16355	0.764203	-0.520879	0.961261	0.418403	-0.313432	-0.244843	0.900155	0.0355873	0	0	-0.195352	0.132718	-0.0588742	0.212679	0.185272	0	0	-0.192094	-0.0930035	-0.179626	-0.139117	-0.123086	0.0625584	0.450499	1.1596	0	0	0.00866302	-0.298404	0.396991	0.705706	0.836133	0	0
2.13	0.695659	1.3939	-2.14978	0.76421	-0.530032	0.960496	0.416927	-0.310453	-0.260974	0.852413	0.0431349	0	0	-0.21182	0.129661	-0.0538973	0.203909	0.189374	0	0	-0.195778	-0.0889737	-0.179592	-0.138871	-0.119006	0.0475	0.439736	1.18965	0	0	0.0221434	-0.294001	0.387591	0.702013	0.868674	0	0
2.14	0.691927	1.39535	-2.14628	0.764086	-0.539206	0.959411	0.417735	-0.308204	-0.276872	0.805877	0.0514931	0	0	-0.225202	0.127335	-0.0504241	0.197653	0.194681	0	0	-0.197148	-0.0864169	-0.179549	-0.140032	-0.117693	0.0503459	0.433608	1.18705	0	0	0.034257	-0.292493	0.386846	0.702507	0.874066	0	0
2.15	0.685917	1.39705	-2.14082	0.763847	-0.548504	0.958238	0.417986	-0.304873	-0.293447	0.759608	0.060263	0	0	-0.238868	0.124319	-0.0479095	0.191161	0.200315	0	0	-0.198189	-0.0833716	-0.179373	-0.140687	-0.116791	0.0552323	0.42688	1.18292	0	0	0.0454114	-0.290434	0.384743	0.702697	0.880705	0	0
